<svg xmlns="http://www.w3.org/2000/svg" viewBox="0 0 45 45">
<path d="M22.5 9c-2.21 0-4 1.79-4 4 0 .89.29 1.71.78 2.38-1.95 1.12-3.28 3.21-3.28 5.62 0 2.03.95 3.84 2.44 5.01C15.28 26.47 13 28.9 13 32.5c0 1.38.5 2.64 1.3 3.5H30.7c.8-.86 1.3-2.12 1.3-3.5 0-3.6-2.28-6.03-5.44-7.49 1.49-1.17 2.44-2.98 2.44-5.01 0-2.41-1.33-4.5-3.28-5.62.49-.67.78-1.49.78-2.38 0-2.21-1.79-4-4-4z" style="opacity:1;fill:#000;fill-opacity:1;fill-rule:nonzero;stroke:#000;stroke-width:1.5;stroke-linecap:round;stroke-linejoin:miter;stroke-miterlimit:4;stroke-dasharray:none;stroke-opacity:1"/>
</svg>